<?xml version="1.0" encoding="UTF-8"?>
<svg width="68px" height="68px" viewBox="0 0 68 68" version="1.1" xmlns="http://www.w3.org/2000/svg" xmlns:xlink="http://www.w3.org/1999/xlink">
    <!-- Generator: Sketch 47 (45396) - http://www.bohemiancoding.com/sketch -->
    <title>profile</title>
    <desc>Created with Sketch.</desc>
    <defs></defs>
    <g id="Page-1" stroke="none" stroke-width="1" fill="none" fill-rule="evenodd">
        <g id="profile" fill-rule="nonzero" fill="#000000">
            <path d="M0.4,34 C0.4,52.5 15.5,67.6 34,67.6 C52.5,67.6 67.6,52.5 67.6,34 C67.6,15.5 52.5,0.4 34,0.4 C15.5,0.4 0.4,15.5 0.4,34 Z M34,65.6 C25.6,65.6 18,62.3 12.3,56.9 C23.7,53.5 26.6,49.2 27.2,47.1 C29,48 31.1,48.5 33.5,48.5 C33.5,48.5 33.6,48.5 33.6,48.5 L33.7,48.5 L33.8,48.5 C33.8,48.5 33.9,48.5 33.9,48.5 C36.5,48.5 38.7,47.9 40.6,46.8 C41.1,48.9 43.7,53.6 55.6,56.9 C50,62.3 42.4,65.6 34,65.6 Z M25.2,43 C20.2,37.3 21.2,26.7 21.2,26.6 C21.2,26.6 21.2,26.6 21.2,26.5 C21.7,14.6 30.6,13.7 33.3,13.7 C33.4,13.7 33.5,13.7 33.6,13.7 C33.6,13.7 33.7,13.7 33.7,13.7 C33.8,13.7 33.9,13.7 34,13.7 C36.7,13.7 45.6,14.6 46.1,26.5 C46.1,26.5 46.1,26.5 46.1,26.6 C46.1,26.7 47.2,37.3 42.2,43 C40.1,45.3 37.3,46.5 33.8,46.5 C33.8,46.5 33.8,46.5 33.7,46.5 L33.7,46.5 L33.7,46.5 C33.7,46.5 33.7,46.5 33.6,46.5 C30.1,46.5 27.2,45.3 25.2,43 Z M65.6,34 C65.6,42.2 62.5,49.7 57.3,55.3 C42.7,51.6 42.5,46 42.5,45.8 C42.5,45.7 42.5,45.6 42.5,45.5 C42.9,45.1 43.4,44.7 43.8,44.3 C49.3,38.1 48.3,27.2 48.2,26.4 C47.5,12.4 36.3,11.7 34,11.7 C33.9,11.7 33.8,11.7 33.7,11.7 C33.6,11.7 33.5,11.7 33.4,11.7 C31.2,11.7 19.9,12.4 19.2,26.4 C19.1,27.2 18.1,38.1 23.6,44.3 C24.1,44.9 24.7,45.5 25.4,45.9 C25.3,46.7 24.2,51.5 10.7,55.2 C5.6,49.6 2.4,42.1 2.4,33.9 C2.4,16.5 16.6,2.3 34,2.3 C51.4,2.4 65.6,16.6 65.6,34 Z" id="Shape"></path>
        </g>
    </g>
</svg>