<?xml version="1.0" encoding="UTF-8"?>
<svg width="112px" height="96px" viewBox="0 0 112 96" version="1.1" xmlns="http://www.w3.org/2000/svg" xmlns:xlink="http://www.w3.org/1999/xlink">
    <!-- Generator: Sketch 48.2 (47327) - http://www.bohemiancoding.com/sketch -->
    <title>chat</title>
    <desc>Created with Sketch.</desc>
    <defs></defs>
    <g id="Page-1" stroke="none" stroke-width="1" fill="none" fill-rule="evenodd">
        <g id="chat" fill="#ACAAAD" fill-rule="nonzero">
            <path d="M104.343,59.979 L104.334,59.979 C109.019,53.822 111.647,46.629 111.494,38.99 C111.063,17.007 87.805,-0.362 59.553,0.194 C31.301,0.749 8.751,19.021 9.183,40.999 C9.191,41.402 9.206,41.803 9.231,42.203 L10.613,41.314 C10.607,41.192 18.071,37.345 18.071,37.223 C18.071,21.237 41.255,5.869 59.549,5.869 C76.042,5.869 104.28,15.33 104.28,39.067 C104.279,46.24 100.16,53.429 95.706,59.208 C91.978,64.985 96.427,77.998 96.427,77.998 L81.793,70.208 C77.966,71.4 72.043,71.958 70.418,72.417 C68.459,77 65.417,79.572 65.417,79.572 C70.569,79.212 74.545,78.335 79.148,76.882 L105.073,88.025 C105.072,88.024 96.293,70.293 104.343,59.979 Z M35.457,36.076 C16.445,35.702 0.795,47.391 0.504,62.185 C0.401,67.325 2.171,72.165 5.321,76.308 L5.316,76.308 C10.732,83.248 4.825,95.181 4.825,95.181 L22.271,87.683 C26.031,88.87 30.117,89.559 34.398,89.644 C53.41,90.018 69.06,78.33 69.352,63.536 C69.644,48.745 54.469,36.45 35.457,36.076 Z" id="Shape"></path>
        </g>
    </g>
</svg>