<?xml version="1.0" encoding="UTF-8"?>
<svg width="70px" height="90px" viewBox="0 0 70 90" version="1.1" xmlns="http://www.w3.org/2000/svg" xmlns:xlink="http://www.w3.org/1999/xlink">
    <!-- Generator: Sketch 48.2 (47327) - http://www.bohemiancoding.com/sketch -->
    <title>data</title>
    <desc>Created with Sketch.</desc>
    <defs></defs>
    <g id="Page-1" stroke="none" stroke-width="1" fill="none" fill-rule="evenodd">
        <g id="data" transform="translate(0.000000, -1.000000)" fill="#ACAAAD" fill-rule="nonzero">
            <g id="Group" transform="translate(0.000000, 0.637820)">
                <path d="M69.9995,18.36218 C69.9995,12.82923 65.5493,8.30683 59.2183,5.23718 C52.8875,2.16753 44.3747,0.36218 35,0.36218 C25.6253,0.36218 17.1126,2.16753 10.7812,5.23718 C4.45,8.30683 0,12.82921 0,18.36218 C0.01,32.15708 0,58.4038 0,72.3622 C0,77.8951 4.4502,82.3863 10.7812,85.4559 C17.1125,88.5256 25.6253,90.3622 35,90.3622 C44.3747,90.3622 52.8875,88.5256 59.2188,85.4559 C65.5498,82.3863 70,77.8951 70,72.3622 L69.9995,18.36218 Z M35,4.36218 C43.8507,4.36218 51.8562,6.10973 57.4688,8.83093 C63.0811,11.55213 66,15.05853 66,18.36218 C66,21.66583 63.0811,25.14098 57.4688,27.86218 C51.8562,30.58338 43.8507,32.36218 35,32.36218 C26.1494,32.36218 18.1438,30.58338 12.5312,27.86218 C6.9187,25.14098 4,21.66581 4,18.36218 C4,15.05855 6.9188,11.55213 12.5312,8.83093 C18.1438,6.10973 26.1494,4.36218 35,4.36218 Z M4,26.86218 C5.8057,28.62664 8.1199,30.1656 10.7812,31.45593 C17.1125,34.52558 25.6253,36.36218 35,36.36218 C44.3747,36.36218 52.8875,34.52558 59.2188,31.45593 C61.88,30.1656 64.1943,28.62665 66,26.86218 C66,28.69551 66,34.52885 66,36.36218 C66,39.66583 63.0811,43.141 57.4688,45.8622 C51.8562,48.5834 43.8507,50.3622 35,50.3622 C26.1494,50.3622 18.1438,48.5834 12.5312,45.8622 C6.9187,43.141 4,39.66581 4,36.36218 C4,34.52885 4,28.69551 4,26.86218 Z M4,44.8622 C5.8057,46.6266 8.1199,48.1656 10.7812,49.4559 C17.1125,52.5256 25.6253,54.3622 35,54.3622 C44.3747,54.3622 52.8875,52.5256 59.2188,49.4559 C61.88,48.1656 64.1943,46.6267 66,44.8622 C66,46.6955 66,52.5289 66,54.3622 C66,57.6658 63.0811,61.141 57.4688,63.8622 C51.8562,66.5834 43.8507,68.3622 35,68.3622 C26.1494,68.3622 18.1438,66.5834 12.5312,63.8622 C6.9187,61.141 4,57.6658 4,54.3622 C4,52.5289 4,46.6955 4,44.8622 Z M4,62.8622 C5.8057,64.6266 8.1199,66.1656 10.7812,67.4559 C17.1125,70.5256 25.6253,72.3622 35,72.3622 C44.3747,72.3622 52.8875,70.5256 59.2188,67.4559 C61.88,66.1656 64.1943,64.6267 66,62.8622 L66,72.3622 C66,75.6658 63.0811,79.141 57.4688,81.8622 C51.8562,84.5834 43.8507,86.3622 35,86.3622 C26.1494,86.3622 18.1438,84.5834 12.5312,81.8622 C6.9189,79.141 4,75.6658 4,72.3622 L4,62.8622 Z" id="Shape"></path>
            </g>
        </g>
    </g>
</svg>