<?xml version="1.0" encoding="UTF-8"?>
<svg width="96px" height="54px" viewBox="0 0 96 54" version="1.1" xmlns="http://www.w3.org/2000/svg" xmlns:xlink="http://www.w3.org/1999/xlink">
    <!-- Generator: Sketch 48.2 (47327) - http://www.bohemiancoding.com/sketch -->
    <title>people</title>
    <desc>Created with Sketch.</desc>
    <defs></defs>
    <g id="Page-1" stroke="none" stroke-width="1" fill="none" fill-rule="evenodd">
        <g id="people" fill="#ACAAAD" fill-rule="nonzero">
            <path d="M92,51.9 L92,46.9 C92,46.3 91.8,45.8 91.3,45.5 C86.9,41.9 82.1,39.5 81.2,39 C80.5,38.7 80.1,37.9 80.1,37.2 L80.1,30.1 C80.1,29.5 80.4,29 80.9,28.7 C81.3,28.4 81.6,27.9 81.6,27.4 L81.6,20 C81.6,17.3 79.4,15.1 76.7,15.1 L75.1,15.1 C72.4,15.1 70.2,17.3 70.2,20 L70.2,27.3 C70.2,27.8 70.5,28.3 70.9,28.6 C71.4,28.9 71.7,29.4 71.7,30 L71.7,33.4 C71.7,34.3 70.9,35.1 70,35.1 C69.1,35.1 68.3,34.3 68.3,33.4 L68.3,30.8 C67.4,29.9 66.8,28.6 66.8,27.3 L66.8,20 C66.8,15.4 70.5,11.7 75.1,11.7 L76.7,11.7 C81.3,11.7 85,15.4 85,20 L85,27.3 C85,28.6 84.5,29.9 83.5,30.8 L83.5,36.2 C85.3,37.1 89.5,39.5 93.5,42.7 C94.7,43.7 95.4,45.2 95.4,46.8 L95.4,51.8 C95.4,52.7 94.6,53.5 93.7,53.5 C92.8,53.5 92,52.8 92,51.9 Z M19.3,15.1 L20.9,15.1 C23.6,15.1 25.8,17.3 25.8,20 L25.8,27.3 C25.8,27.8 25.5,28.3 25.1,28.6 C24.6,28.9 24.3,29.4 24.3,30 L24.3,33.5 C24.3,34.4 25.1,35.2 26,35.2 C26.9,35.2 27.7,34.4 27.7,33.5 L27.7,30.8 C28.6,29.9 29.2,28.6 29.2,27.3 L29.2,20 C29.2,15.4 25.5,11.7 20.9,11.7 L19.3,11.7 C14.7,11.7 11,15.4 11,20 L11,27.3 C11,28.6 11.5,29.9 12.5,30.8 L12.5,36.2 C10.7,37.1 6.5,39.5 2.5,42.7 C1.3,43.7 0.6,45.2 0.6,46.8 L0.6,51.8 C0.6,52.7 1.4,53.5 2.3,53.5 C3.2,53.5 4,52.8 4,51.9 L4,46.9 C4,46.3 4.2,45.8 4.7,45.5 C9.1,41.9 13.9,39.5 14.8,39 C15.5,38.7 15.9,37.9 15.9,37.2 L15.9,30.1 C15.9,29.5 15.6,29 15.1,28.7 C14.7,28.4 14.4,27.9 14.4,27.4 L14.4,20 C14.4,17.3 16.6,15.1 19.3,15.1 Z M71.1,53.6 C72,53.6 72.8,52.8 72.8,51.9 L72.8,45.4 C72.8,43.5 72,41.7 70.5,40.5 C65.2,36.2 59.6,33.1 57.4,32 L57.4,24.5 C58.6,23.4 59.3,21.8 59.3,20.1 L59.3,10.6 C59.3,5 54.7,0.4 49.1,0.4 L47.1,0.4 C41.5,0.4 36.9,5 36.9,10.6 L36.9,20.1 C36.9,21.8 37.6,23.4 38.8,24.5 L38.8,32 C36.6,33.1 31,36.2 25.7,40.5 C24.2,41.7 23.4,43.5 23.4,45.4 L23.4,51.9 C23.4,52.8 24.2,53.6 25.1,53.6 C26,53.6 26.8,52.8 26.8,51.9 L26.8,45.4 C26.8,44.5 27.2,43.7 27.8,43.2 C33.5,38.5 39.8,35.3 41,34.8 C41.7,34.4 42.2,33.7 42.2,32.9 L42.2,23.8 C42.2,23.2 41.9,22.7 41.4,22.4 C40.7,21.9 40.3,21.1 40.3,20.3 L40.3,10.8 C40.3,7 43.4,4 47.1,4 L49.1,4 C52.9,4 55.9,7.1 55.9,10.8 L55.9,20.3 C55.9,21.2 55.5,22 54.8,22.4 C54.3,22.7 54,23.2 54,23.8 L54,32.9 C54,33.7 54.5,34.5 55.2,34.8 C56.4,35.4 62.6,38.5 68.4,43.2 C69.1,43.7 69.4,44.6 69.4,45.4 L69.4,51.9 C69.4,52.8 70.2,53.6 71.1,53.6 Z" id="Shape"></path>
        </g>
    </g>
</svg>