<?xml version="1.0" encoding="UTF-8"?>
<svg width="98px" height="64px" viewBox="0 0 98 64" version="1.1" xmlns="http://www.w3.org/2000/svg" xmlns:xlink="http://www.w3.org/1999/xlink">
    <!-- Generator: Sketch 48.2 (47327) - http://www.bohemiancoding.com/sketch -->
    <title>timeline</title>
    <desc>Created with Sketch.</desc>
    <defs></defs>
    <g id="Page-1" stroke="none" stroke-width="1" fill="none" fill-rule="evenodd">
        <g id="timeline" fill="#ACAAAD" fill-rule="nonzero">
            <g id="Group">
                <path d="M87.082,0.283 C81.177,0.283 76.395,5.036 76.395,10.896 C76.395,16.761 81.176,21.51 87.082,21.51 C92.978,21.51 97.762,16.761 97.762,10.896 C97.762,5.036 92.978,0.283 87.082,0.283 Z M87.074,17.732 C83.274,17.732 80.195,14.668 80.195,10.896 C80.195,7.125 83.274,4.061 87.074,4.061 C90.882,4.061 93.962,7.125 93.962,10.896 C93.962,14.668 90.882,17.732 87.074,17.732 Z" id="Shape"></path>
                <path d="M88.559,21.357 C88.073,21.431 87.584,21.51 87.082,21.51 C83.544,21.51 80.435,19.784 78.49,17.156 L68.837,43.124 C68.583,43.152 68.335,43.189 68.089,43.227 L50.719,26.734 C50.778,26.279 50.813,25.813 50.813,25.355 C50.813,19.494 46.031,14.74 40.134,14.74 C34.23,14.74 29.447,19.494 29.447,25.355 C29.447,25.864 29.497,26.367 29.571,26.858 L16.504,36.463 C14.83,35.37 12.835,34.737 10.687,34.737 C4.783,34.738 0,39.488 0,45.353 C0,51.213 4.783,55.966 10.687,55.966 C16.22,55.966 20.777,51.778 21.315,46.408 L36.428,35.299 C37.586,35.729 38.83,35.976 40.134,35.976 C41.467,35.976 42.74,35.714 43.919,35.263 L59.775,50.339 C59.447,51.351 59.265,52.421 59.265,53.542 C59.266,59.315 63.981,64 69.792,64 C75.602,64 80.318,59.315 80.318,53.542 C80.318,51.481 79.707,49.57 78.672,47.951 L88.559,21.357 Z M10.534,52.166 C6.734,52.166 3.647,49.108 3.647,45.33 C3.647,41.559 6.734,38.499 10.534,38.499 C14.334,38.499 17.413,41.56 17.413,45.33 C17.413,49.108 14.334,52.166 10.534,52.166 Z M40.112,31.783 C36.312,31.783 33.233,28.725 33.233,24.947 C33.233,21.172 36.313,18.111 40.112,18.111 C43.919,18.111 46.999,21.172 46.999,24.947 C46.999,28.726 43.919,31.783 40.112,31.783 Z M70.004,60.262 C66.202,60.262 63.116,57.204 63.116,53.426 C63.116,49.652 66.202,46.591 70.004,46.591 C73.804,46.591 76.883,49.652 76.883,53.426 C76.883,57.204 73.804,60.262 70.004,60.262 Z" id="Shape"></path>
            </g>
        </g>
    </g>
</svg>